<?xml version="1.0" encoding="UTF-8"?>
<svg id="Calque_spirit" data-name="Calque_spirit" xmlns="http://www.w3.org/2000/svg" viewBox="0 0 600 600">
  <defs>
    <style>
      .spirit-cls-1 {
        fill: #0089a4;
      }

      .spirit-cls-2 {
        fill: #fff;
      }
    </style>
  </defs>
  <path id="Rectangle_1403" data-name="Rectangle 1403" class="spirit-cls-1" d="M168.75,0l262.5.27c93.2.1,168.75,75.69,168.75,168.85v262.38c0,93.16-75.55,168.6-168.75,168.5l-262.5-.27c-93.2-.1-168.75-75.69-168.75-168.85V168.5C0,75.35,75.55-.09,168.75,0Z"/>
  <g id="Groupe_12" data-name="Groupe 12">
    <path id="Tracé_18" data-name="Tracé 18" class="spirit-cls-2" d="M362.51,226.81c-22.46-7.37-37.65-28.33-37.65-51.97v-24.97c0-2.27,1.84-4.11,4.11-4.11,2.27,0,4.11-1.84,4.11-4.11h0v-47.76c0-4.91-3.98-8.89-8.89-8.9h-48.38c-4.91,0-8.9,3.98-8.9,8.9h0v47.76c0,2.27,1.84,4.11,4.11,4.11h0c2.27,0,4.11,1.84,4.11,4.11v24.97c0,23.64-15.19,44.6-37.65,51.97-24.42,8.01-39.97,31.95-37.36,57.53l20.78,203.61c.46,5,4.65,8.82,9.67,8.82h138.85c5.02,0,9.21-3.82,9.67-8.82l20.78-203.62c2.61-25.57-12.94-49.51-37.37-57.52M367.1,284.56l-18.7,175.36c-.91,8.51-6.85,14.87-13.89,14.87h-69.02c-7.04,0-12.98-6.36-13.89-14.87l-18.7-175.36c-1.09-10.22,5.44-19.27,13.89-19.27h106.42c8.45,0,14.98,9.06,13.89,19.27"/>
  </g>
</svg>