<?xml version="1.0" encoding="UTF-8"?>
<svg id="Calque_wine" data-name="Calque_wine" xmlns="http://www.w3.org/2000/svg" viewBox="0 0 600 600">
  <defs>
    <style>
      .wine-cls-1 {
        fill: #2eb091;
      }

      .wine-cls-2 {
        fill: #fff;
      }
    </style>
  </defs>
  <path id="Rectangle_1403" data-name="Rectangle 1403" class="wine-cls-1" d="M168.75,0l262.5.27c93.2.1,168.75,75.69,168.75,168.85v262.38c0,93.16-75.55,168.6-168.75,168.5l-262.5-.27c-93.2-.1-168.75-75.69-168.75-168.85V168.5C0,75.35,75.55-.09,168.75,0Z"/>
  <path class="wine-cls-2" d="M370.98,112.03c-.59-1.86-2.29-3.11-4.21-3.11h-133.55c-1.92,0-3.62,1.26-4.21,3.11-1.01,3.18-23.12,73.59-21.15,113.75.14,2.85.39,5.56.79,8.07,4.4,27.71,22.31,52.49,47.92,66.31,21.66,11.69,31.32,20.54,31.32,42.09v109.82c0,11.05-7.85,20.32-19.99,23.61-6.49,1.76-14.01,2.82-27.75,3.9-10.17.8-13.38,6.79-14.39,10.29-.76,2.65-.34,5.25,1.18,7.32,1.63,2.21,4.42,3.58,7.28,3.58h131.52c2.86,0,5.65-1.37,7.28-3.58,1.53-2.07,1.95-4.67,1.18-7.32-1.01-3.5-4.21-9.49-14.39-10.29-13.74-1.08-21.26-2.14-27.75-3.9-12.14-3.29-19.99-12.56-19.99-23.61v-109.82c0-21.55,9.66-30.4,31.32-42.09,25.6-13.82,43.52-38.6,47.92-66.31.4-2.51.65-5.22.79-8.07,1.97-40.16-20.14-110.57-21.15-113.75ZM223.11,201.83c3.59-30.6,14.27-67.4,17.44-77.9h118.9c3.17,10.5,13.84,47.3,17.44,77.9h-153.77Z"/>
</svg>