<svg xmlns="http://www.w3.org/2000/svg" xmlns:xlink="http://www.w3.org/1999/xlink" width="64" height="64" viewBox="0 0 64 64">
  <defs>
    <clipPath id="clip-path">
      <rect id="Rectangle_1390" data-name="Rectangle 1390" width="28.602" height="27.028" fill="rgba(0,0,0,0.2)"/>
    </clipPath>
    <clipPath id="clip-path-2">
      <rect id="Rectangle_1391" data-name="Rectangle 1391" width="28.602" height="27.028" fill="#fff"/>
    </clipPath>
  </defs>
  <g id="Groupe_3068" data-name="Groupe 3068" transform="translate(-114.5 -28)">
    <rect id="Rectangle_1403" data-name="Rectangle 1403" width="64" height="64" rx="18" transform="translate(114.5 28)" fill="#fda703"/>
    <g id="Groupe_1406" data-name="Groupe 1406" transform="translate(133.5 47.052)">
      <g id="Groupe_1404" data-name="Groupe 1404" transform="translate(1.229 1.229)">
        <g id="Groupe_1354" data-name="Groupe 1354" clip-path="url(#clip-path)">
          <path id="Tracé_638" data-name="Tracé 638" d="M27.708,16.16H23.091V.894A.893.893,0,0,0,22.2,0H.894A.893.893,0,0,0,0,.894v22a4.143,4.143,0,0,0,4.138,4.138H24.955A3.651,3.651,0,0,0,28.6,23.364v-6.31a.893.893,0,0,0-.894-.894ZM4.138,25.223a2.355,2.355,0,0,1-2.351-2.333V1.788H21.3V23.365a3.618,3.618,0,0,0,.514,1.859Zm22.675-1.859a1.864,1.864,0,0,1-3.723,0V17.948h3.723ZM17.46,6.525a.893.893,0,0,1-.894.894H5.424a.894.894,0,0,1,0-1.787H16.566a.894.894,0,0,1,.894.894Zm0,5.81a.894.894,0,0,1-.894.894H5.424a.894.894,0,1,1,0-1.787H16.566a.894.894,0,0,1,.894.9Zm0,5.81a.894.894,0,0,1-.894.894H5.424a.894.894,0,1,1,0-1.787H16.566a.894.894,0,0,1,.894.907Z" transform="translate(0 0)" fill="rgba(0,0,0,0.1)"/>
        </g>
      </g>
      <g id="Groupe_1405" data-name="Groupe 1405">
        <g id="Groupe_1356" data-name="Groupe 1356" clip-path="url(#clip-path-2)">
          <path id="Tracé_639" data-name="Tracé 639" d="M27.708,16.16H23.091V.894A.893.893,0,0,0,22.2,0H.894A.893.893,0,0,0,0,.894v22a4.143,4.143,0,0,0,4.138,4.138H24.955A3.651,3.651,0,0,0,28.6,23.364v-6.31a.893.893,0,0,0-.894-.894Zm-.894,7.2a1.864,1.864,0,0,1-3.723,0V17.948h3.723Z" transform="translate(0 0)" fill="#fff"/>
          <path id="Tracé_640" data-name="Tracé 640" d="M27.708,16.16H23.091V.894A.893.893,0,0,0,22.2,0H.894A.893.893,0,0,0,0,.894v22a4.143,4.143,0,0,0,4.138,4.138H24.955A3.651,3.651,0,0,0,28.6,23.364v-6.31a.893.893,0,0,0-.894-.894ZM4.138,25.223a2.355,2.355,0,0,1-2.351-2.333V1.788H21.3V23.365a3.618,3.618,0,0,0,.514,1.859Zm22.675-1.859a1.864,1.864,0,0,1-3.723,0V17.948h3.723ZM17.46,6.525a.893.893,0,0,1-.894.894H5.424a.894.894,0,0,1,0-1.787H16.566a.894.894,0,0,1,.894.894Zm0,5.81a.894.894,0,0,1-.894.894H5.424a.894.894,0,1,1,0-1.787H16.566a.894.894,0,0,1,.894.9Zm0,5.81a.894.894,0,0,1-.894.894H5.424a.894.894,0,1,1,0-1.787H16.566a.894.894,0,0,1,.894.907Z" transform="translate(0 0)" fill="#fff"/>
        </g>
      </g>
      <path id="Tracé_683" data-name="Tracé 683" d="M16.617,5.477a.893.893,0,0,1-.894.894H4.582a.894.894,0,0,1,0-1.787H15.723a.894.894,0,0,1,.894.894Zm0,5.81a.894.894,0,0,1-.894.894H4.582a.894.894,0,0,1,0-1.787H15.723a.894.894,0,0,1,.894.9Zm0,5.81a.894.894,0,0,1-.894.894H4.582a.894.894,0,1,1,0-1.787H15.723a.894.894,0,0,1,.894.907Z" transform="translate(2.001 2.331)" fill="#fda703"/>
    </g>
  </g>
</svg>
