<svg width="17" height="22" viewBox="0 0 17 22" fill="none" xmlns="http://www.w3.org/2000/svg">
<path fill-rule="evenodd" clip-rule="evenodd" d="M8.16315 0C3.66152 0 0 3.66268 0 8.16328C0 14.489 7.51232 21.0141 7.83168 21.2886C7.92728 21.3699 8.04515 21.4117 8.16314 21.4117C8.28113 21.4117 8.399 21.3699 8.4946 21.2886C8.81397 21.0141 16.3263 14.489 16.3263 8.16328C16.3263 3.66268 12.6646 0 8.16314 0M8.16327 11.7512C6.18505 11.7512 4.57561 10.1419 4.57561 8.16353C4.57561 6.18531 6.18505 4.57587 8.16327 4.57587C10.1415 4.57587 11.7511 6.18531 11.7511 8.16353C11.7511 10.1419 10.1415 11.7512 8.16327 11.7512Z" fill="black"/>
</svg>
