<svg width="100" height="100" viewBox="0 0 100 100" fill="none" xmlns="http://www.w3.org/2000/svg">
<path d="M71.875 0H28.125C12.592 0 0 12.592 0 28.125V71.875C0 87.408 12.592 100 28.125 100H71.875C87.408 100 100 87.408 100 71.875V28.125C100 12.592 87.408 0 71.875 0Z" fill="#F2EFC8"/>
<path d="M79.0828 51.4313H78.4578C77.6228 51.4366 76.795 51.2762 76.0226 50.9591C75.2501 50.6421 74.5483 50.1748 73.9578 49.5843C73.3674 48.9939 72.9001 48.2921 72.583 47.5196C72.266 46.7471 72.1055 45.9194 72.1109 45.0844C72.1109 46.7677 71.4422 48.382 70.2519 49.5723C69.0617 50.7626 67.4473 51.4313 65.764 51.4313C64.0807 51.4313 62.4664 50.7626 61.2761 49.5723C60.0858 48.382 59.4172 46.7677 59.4172 45.0844C59.4172 46.7677 58.7485 48.382 57.5582 49.5723C56.3679 50.7626 54.7536 51.4313 53.0703 51.4313C51.387 51.4313 49.7726 50.7626 48.5824 49.5723C47.3921 48.382 46.7234 46.7677 46.7234 45.0844C46.7234 46.7677 46.0547 48.382 44.8644 49.5723C43.6742 50.7626 42.0598 51.4313 40.3765 51.4313C38.6932 51.4313 37.0789 50.7626 35.8886 49.5723C34.6983 48.382 34.0297 46.7677 34.0297 45.0844C34.0351 45.9194 33.8746 46.7471 33.5575 47.5196C33.2405 48.2921 32.7732 48.9939 32.1827 49.5843C31.5923 50.1748 30.8905 50.6421 30.118 50.9591C29.3455 51.2762 28.5178 51.4366 27.6828 51.4313H27.0578C26.1129 51.2994 25.2128 50.9453 24.4313 50.3979C23.6499 49.8506 23.0095 49.1257 22.5626 48.2828C22.1157 47.4399 21.8752 46.503 21.8608 45.549C21.8464 44.5951 22.0585 43.6514 22.4797 42.7953L29.139 28.6453C29.2373 28.4856 29.3751 28.3539 29.539 28.2628C29.7029 28.1717 29.8874 28.1242 30.075 28.125H76.064C76.2518 28.124 76.4367 28.1713 76.6009 28.2624C76.7651 28.3535 76.9031 28.4854 77.0015 28.6453L83.6609 42.7953C84.0821 43.6514 84.2942 44.5951 84.2798 45.549C84.2653 46.503 84.0248 47.4399 83.578 48.2828C83.1311 49.1257 82.4907 49.8506 81.7092 50.3979C80.9278 50.9453 80.0277 51.2994 79.0828 51.4313ZM72.1109 50.5984C73.1626 51.7924 74.5345 52.66 76.064 53.0984V77.0312H50.8843V58.5078H35.7984V77.1328H30.075V53.2C31.6045 52.7616 32.9764 51.894 34.0281 50.7C34.8139 51.6139 35.7878 52.3474 36.8832 52.8502C37.9786 53.353 39.1697 53.6133 40.375 53.6133C41.5803 53.6133 42.7713 53.353 43.8667 52.8502C44.9621 52.3474 45.9361 51.6139 46.7218 50.7C47.5076 51.6139 48.4815 52.3474 49.5769 52.8502C50.6724 53.353 51.8634 53.6133 53.0687 53.6133C54.274 53.6133 55.4651 53.353 56.5605 52.8502C57.6559 52.3474 58.6298 51.6139 59.4156 50.7C60.2072 51.6071 61.1822 52.3358 62.2763 52.8382C63.3704 53.3405 64.5586 53.6049 65.7625 53.6141C66.9731 53.5859 68.1642 53.3026 69.2578 52.7827C70.3515 52.2628 71.3232 51.5179 72.1093 50.5969M70.8593 58.5047H59.625V64.3313H70.9656V58.5078L70.8593 58.5047Z" fill="white"/>
<path d="M75.9578 48.3063H75.3328C74.4978 48.3116 73.67 48.1512 72.8976 47.8341C72.1251 47.5171 71.4233 47.0498 70.8328 46.4593C70.2424 45.8689 69.7751 45.1671 69.458 44.3946C69.141 43.6221 68.9805 42.7944 68.9859 41.9594C68.9859 43.6427 68.3172 45.257 67.1269 46.4473C65.9367 47.6376 64.3223 48.3063 62.639 48.3063C60.9557 48.3063 59.3414 47.6376 58.1511 46.4473C56.9608 45.257 56.2922 43.6427 56.2922 41.9594C56.2922 43.6427 55.6235 45.257 54.4332 46.4473C53.2429 47.6376 51.6286 48.3063 49.9453 48.3063C48.262 48.3063 46.6476 47.6376 45.4574 46.4473C44.2671 45.257 43.5984 43.6427 43.5984 41.9594C43.5984 43.6427 42.9297 45.257 41.7394 46.4473C40.5492 47.6376 38.9348 48.3063 37.2515 48.3063C35.5682 48.3063 33.9539 47.6376 32.7636 46.4473C31.5733 45.257 30.9047 43.6427 30.9047 41.9594C30.9101 42.7944 30.7496 43.6221 30.4325 44.3946C30.1155 45.1671 29.6482 45.8689 29.0577 46.4593C28.4673 47.0498 27.7655 47.5171 26.993 47.8341C26.2205 48.1512 25.3928 48.3116 24.5578 48.3063H23.9328C22.9879 48.1744 22.0878 47.8203 21.3063 47.2729C20.5249 46.7256 19.8845 46.0007 19.4376 45.1578C18.9907 44.3149 18.7502 43.378 18.7358 42.424C18.7214 41.4701 18.9335 40.5264 19.3547 39.6703L26.014 25.5203C26.1123 25.3606 26.2501 25.2289 26.414 25.1378C26.5779 25.0467 26.7624 24.9992 26.95 25H72.939C73.1268 24.999 73.3117 25.0463 73.4759 25.1374C73.6401 25.2285 73.7781 25.3604 73.8765 25.5203L80.5359 39.6703C80.9571 40.5264 81.1692 41.4701 81.1548 42.424C81.1403 43.378 80.8998 44.3149 80.453 45.1578C80.0061 46.0007 79.3657 46.7256 78.5842 47.2729C77.8028 47.8203 76.9027 48.1744 75.9578 48.3063ZM68.9859 47.4734C70.0376 48.6674 71.4095 49.535 72.939 49.9734V73.9062H47.7593V55.3828H32.6734V74.0078H26.95V50.075C28.4795 49.6366 29.8514 48.769 30.9031 47.575C31.6889 48.4889 32.6628 49.2224 33.7582 49.7252C34.8536 50.228 36.0447 50.4883 37.25 50.4883C38.4553 50.4883 39.6463 50.228 40.7417 49.7252C41.8371 49.2224 42.8111 48.4889 43.5968 47.575C44.3826 48.4889 45.3565 49.2224 46.4519 49.7252C47.5474 50.228 48.7384 50.4883 49.9437 50.4883C51.149 50.4883 52.3401 50.228 53.4355 49.7252C54.5309 49.2224 55.5048 48.4889 56.2906 47.575C57.0822 48.4821 58.0572 49.2108 59.1513 49.7132C60.2454 50.2155 61.4336 50.4799 62.6375 50.4891C63.8481 50.4609 65.0392 50.1776 66.1328 49.6577C67.2265 49.1378 68.1982 48.3929 68.9843 47.4719M67.7343 55.3797H56.5V61.2063H67.8406V55.3828L67.7343 55.3797Z" fill="black"/>
</svg>