<svg width="15" height="17" viewBox="0 0 15 17" fill="none" xmlns="http://www.w3.org/2000/svg">
<mask id="mask0_10857_21241" style="mask-type:luminance" maskUnits="userSpaceOnUse" x="0" y="0" width="15" height="17">
<path fill-rule="evenodd" clip-rule="evenodd" d="M0 0H14.3852V16.9375H0V0Z" fill="white"/>
</mask>
<g mask="url(#mask0_10857_21241)">
<path fill-rule="evenodd" clip-rule="evenodd" d="M13.0604 2.38807H11.359V0.7722C11.359 0.3458 11.0481 0 10.6647 0H10.5693H10.491C10.1077 0 9.79646 0.3458 9.79646 0.7722V2.38807H4.59507V0.7722C4.59507 0.3458 4.28404 0 3.90055 0H3.80529H3.72692C3.34358 0 3.03247 0.3458 3.03247 0.7722V2.38807H1.32487C0.59435 2.38807 0 2.96645 0 3.6774V15.6482C0 16.3591 0.59435 16.9375 1.32487 16.9375H13.0604C13.7909 16.9375 14.3852 16.3591 14.3852 15.6482V3.6774C14.3852 2.96645 13.7909 2.38807 13.0604 2.38807M12.9543 15.5298H1.43164V7.36658H12.9543V15.5298Z" fill="black"/>
<path fill-rule="evenodd" clip-rule="evenodd" d="M5.98172 13.9144C5.99522 13.9144 6.00892 13.914 6.02255 13.9132C6.27619 13.8994 6.5007 13.7581 6.62299 13.5353C6.98953 12.8678 8.35328 10.6237 10.5114 9.77619L10.0883 8.69901C8.03471 9.50557 6.62775 11.3392 5.9535 12.3982L4.74959 10.6797L3.80176 11.3438L5.38456 13.6031C5.52253 13.8 5.74352 13.9144 5.98172 13.9144Z" fill="black"/>
</g>
</svg>
