<?xml version="1.0" encoding="UTF-8"?>
<svg xmlns="http://www.w3.org/2000/svg" version="1.1" viewBox="0 0 68.36 96.37">
  <path d="M63.36,8.35C53.58-4.76,36.63.45,29.06,4.67,11.09.11-.42,10.81.01,26.88c.15,4.66,1.27,9,2.81,13.19,1.57,4.17,3.52,8.22,5.29,12.33,5.52,12.72,3.89,34.9,3.91,35.62,0,0,24.49,15.98,50.27,3.73l.06-.15c-1.34-3.75.34-23.51,1.61-30.62,1.27-7.04,3.44-17.05,4.17-26.86.71-9.78-.05-19.46-4.77-25.78ZM65.18,33.32c-.73,10.04-4.35,20.68-5.52,27.18-.71,3.88-1.34,11.23-1.46,17.83-2.21.64-4.5,1.16-6.76,1.53-1.96-9.56,4.55-22.72,2.45-34.63-1.14,18.38-9.39,26.12-6.17,35.23-2.08.26-4.12.44-5.95.56-1.32-6.15,2.9-14.62,1.55-22.28-.69,11.47-7.35,16.78-5.77,22.44-3.15.02-5.29-.15-5.67-.34l-.71,1.42c2.38,1.32,15.8,2.73,27.04-.26.05,2.9.24,5.47.63,7.21-26.88,6.92-42.59-2.88-42.59-2.88.78-10.62.12-25.49-4.1-35.21-1.68-3.9-3.96-8.25-5.8-12.75-1.85-4.47-3.29-9.04-3.4-13.35C2.52,9.03,17.44-.74,41.42,13.43c.71.43,2.23.47,3.46.4,1.26-.08,3.09-.37,2.49-.8-4.55-3.03-8.85-5.29-12.88-6.81,7.75-3.91,20-6.96,27.07,2.49,4.17,5.56,4.37,14.55,3.63,24.61Z"/>
</svg>

