<svg xmlns="http://www.w3.org/2000/svg" xmlns:xlink="http://www.w3.org/1999/xlink" id="Calque_1" viewBox="0 0 16 16">
  <defs>
    <style>
      .cls-1 {
        fill: none;
      }

      .cls-2 {
        fill: #e40524;
      }

      .cls-3 {
        clip-path: url(#clippath-1);
      }

      .cls-4 {
        clip-path: url(#clippath-2);
      }

      .cls-5 {
        fill: #ffde43;
      }

      .cls-6 {
        clip-path: url(#clippath);
      }
    </style>
    <clipPath id="clippath">
      <rect class="cls-1" x="0" width="16" height="16"/>
    </clipPath>
    <clipPath id="clippath-1">
      <rect class="cls-1" x="0" width="16" height="16"/>
    </clipPath>
    <clipPath id="clippath-2">
      <rect class="cls-1" x="0" width="16" height="16"/>
    </clipPath>
  </defs>
  <rect class="cls-5" x="0" width="16" height="16"/>
  <g class="cls-6">
    <path class="cls-2" d="M12.99,6.14c.34.05.5.23.5.4,0,.12-.09.2-.22.2-.11,0-.2-.09-.2-.2,0-.13.09-.18.09-.24,0-.05-.04-.13-.17-.16"/>
    <path class="cls-2" d="M12.8,6.14c-.3.05-.42.33-.42.66,0,.28,0,.51.24.58-.38-.08-.64-.27-.64-.59,0-.43.35-.63.83-.65"/>
    <path class="cls-2" d="M12.8,8.95c-.57-.04-.94-.29-.94-.8,0-.41.28-.61.73-.7-.25.1-.33.34-.33.7,0,.38.15.72.53.8"/>
    <path class="cls-2" d="M13.39,7.49c-.39.13-.75.22-.75.41,0,0-.02-.03-.03-.07-.04-.32.31-.44.7-.56.43-.14.62-.22.62-.39,0,0,.02.03.03.07.03.28-.24.44-.56.54"/>
    <path class="cls-2" d="M13.04,8.95c.3-.05.42-.33.42-.66,0-.28,0-.51-.24-.58.38.08.64.27.64.59,0,.43-.36.63-.83.65"/>
    <path class="cls-2" d="M4.74,7.59c-.2.07-.6.18-1.02.18-.53,0-.94-.14-1.24-.42-.28-.27-.45-.69-.44-1.17,0-1,.71-1.64,1.76-1.64.39,0,.7.08.84.15l-.13.47c-.17-.07-.39-.14-.72-.14-.68,0-1.15.4-1.15,1.14s.44,1.15,1.1,1.15c.21,0,.36-.03.44-.07v-.79h-.56v-.45h1.12v1.6Z"/>
    <path class="cls-2" d="M6.35,7.74l-.04-.25h-.01c-.14.18-.38.31-.68.31-.46,0-.72-.33-.72-.68,0-.58.51-.87,1.36-.87v-.04c0-.15-.06-.4-.47-.4-.23,0-.46.07-.62.17l-.11-.38c.17-.1.47-.2.83-.2.73,0,.95.47.95.96v.83c0,.21,0,.41.03.55h-.52ZM6.28,6.62c-.41,0-.8.08-.8.43,0,.22.15.33.33.33.23,0,.4-.15.45-.31.01-.04.02-.09.02-.13v-.31Z"/>
    <path class="cls-2" d="M9.22,7.05c0,.27,0,.5.02.69h-.51l-.03-.35h0c-.1.16-.32.4-.73.4s-.8-.25-.8-1v-1.34h.58v1.24c0,.38.12.62.43.62.23,0,.38-.16.44-.31.02-.05.03-.11.03-.18v-1.38h.58v1.6Z"/>
  </g>
  <rect class="cls-2" x="9.56" y="4.54" width=".58" height="3.2"/>
  <g class="cls-3">
    <path class="cls-2" d="M11.25,4.8v.65h.55v.43h-.55v1.01c0,.28.07.42.3.42.1,0,.17-.02.23-.03v.44c-.08.03-.23.06-.41.06-.21,0-.39-.07-.5-.19-.12-.13-.18-.34-.18-.64v-1.08h-.33v-.43h.33v-.52l.56-.14Z"/>
    <path class="cls-2" d="M4.94,10.12c-.02-.41-.04-.9-.04-1.33h-.01c-.1.39-.24.81-.38,1.21l-.46,1.37h-.45l-.42-1.35c-.12-.4-.24-.84-.32-1.23h0c-.01.41-.03.92-.06,1.35l-.07,1.27h-.54l.21-3.17h.76l.41,1.27c.11.37.21.75.29,1.1h.01c.09-.34.19-.73.32-1.1l.44-1.27h.75l.18,3.17h-.56l-.06-1.29Z"/>
    <path class="cls-2" d="M6.7,8.48c0,.17-.13.31-.33.31s-.32-.14-.32-.31.13-.32.32-.32.32.14.32.32M6.08,9.12h.58v2.29h-.58v-2.29Z"/>
  </g>
  <rect class="cls-2" x="7.19" y="8.24" width=".58" height="3.17"/>
  <rect class="cls-2" x="8.3" y="8.24" width=".58" height="3.17"/>
  <g class="cls-4">
    <path class="cls-2" d="M10.7,11.41l-.04-.25h-.02c-.14.18-.38.3-.68.3-.46,0-.72-.33-.72-.68,0-.58.51-.87,1.36-.86v-.04c0-.15-.06-.4-.47-.4-.23,0-.46.07-.62.17l-.11-.38c.17-.1.47-.2.83-.2.73,0,.94.47.94.96v.83c0,.21,0,.41.03.55h-.52ZM10.63,10.29c-.41,0-.8.08-.8.43,0,.22.15.33.33.33.23,0,.4-.15.45-.31.01-.04.02-.09.02-.13v-.32Z"/>
    <path class="cls-2" d="M13.76,10.72c0,.27,0,.5.02.69h-.51l-.03-.35h0c-.1.17-.32.4-.73.4s-.8-.25-.8-1v-1.34h.58v1.25c0,.38.12.62.43.62.23,0,.38-.16.44-.31.02-.05.03-.11.03-.18v-1.38h.58v1.6Z"/>
  </g>
</svg>